Coordinates
version=1
nRows=35
nColumns=19
inDegrees=yes

Units are S.I. units (second, meters, Newtons, ...)
Angles are in degrees.

endheader
time	1_Force_X	1_Force_Y	1_Force_Z	1_Moment_X	1_Moment_Y	1_Moment_Z	1_COP_X	1_COP_Y	1_COP_Z	2_Force_X	2_Force_Y	2_Force_Z	2_Moment_X	2_Moment_Y	2_Moment_Z	2_COP_X	2_COP_Y	2_COP_Z
0.5775	-31.564	907.581	52.409	-68.544	13.839	48.114	54.947	0.000	72.852	4.722	868.477	43.370	-71.485	-10.881	-25.098	-28.844	0.000	79.555
0.5800	-32.260	908.296	53.653	-68.036	13.811	48.008	54.823	0.000	72.173	5.017	869.519	44.856	-71.196	-10.845	-25.064	-28.786	0.000	79.048
0.5825	-32.508	908.670	54.812	-67.106	13.745	48.113	54.928	0.000	71.062	4.661	872.273	45.821	-71.149	-10.911	-24.995	-28.596	0.000	78.693
0.5850	-33.030	907.819	55.133	-66.333	13.679	47.919	54.792	0.000	70.261	4.826	873.143	47.349	-70.838	-10.884	-24.979	-28.557	0.000	78.177
0.5875	-32.980	906.620	55.056	-65.470	13.668	47.883	54.822	0.000	69.406	5.077	874.528	48.878	-70.505	-10.894	-24.875	-28.407	0.000	77.591
0.5900	-33.331	906.124	54.498	-64.274	13.704	47.829	54.809	0.000	68.152	5.377	875.049	49.618	-70.040	-10.877	-24.858	-28.386	0.000	76.974
0.5925	-33.732	904.235	53.369	-63.167	13.767	47.582	54.670	0.000	67.127	5.811	875.228	50.094	-69.463	-10.813	-24.824	-28.364	0.000	76.274
0.5950	-33.596	900.259	52.594	-62.040	13.764	47.351	54.647	0.000	66.211	6.813	873.690	50.436	-68.687	-10.647	-24.669	-28.289	0.000	75.503
0.5975	-33.201	896.804	51.200	-60.779	13.836	47.138	54.599	0.000	65.131	7.554	873.698	50.561	-67.954	-10.519	-24.479	-28.110	0.000	74.657
0.6000	-32.893	894.045	50.115	-59.407	13.861	46.943	54.532	0.000	63.853	8.035	873.015	50.420	-67.157	-10.455	-24.253	-27.900	0.000	73.810
0.6025	-32.887	890.263	49.037	-57.921	14.027	47.028	54.857	0.000	62.510	8.599	872.156	50.278	-66.363	-10.522	-23.853	-27.499	0.000	72.980
0.6050	-32.448	888.198	47.775	-56.460	14.071	46.868	54.781	0.000	61.075	8.989	870.961	50.615	-65.566	-10.430	-23.663	-27.339	0.000	72.148
0.6075	-32.314	884.572	46.338	-55.066	14.077	46.707	54.816	0.000	59.823	9.683	868.908	50.905	-64.504	-10.329	-23.264	-26.982	0.000	71.082
0.6100	-32.054	882.689	44.594	-53.360	14.177	46.600	54.797	0.000	58.108	10.463	866.338	51.414	-63.577	-10.265	-23.022	-26.825	0.000	70.197
0.6125	-32.013	879.759	42.761	-51.789	14.202	46.422	54.774	0.000	56.611	11.377	866.690	51.623	-62.425	-10.212	-22.692	-26.482	0.000	68.828
0.6150	-32.108	876.483	40.313	-50.085	14.246	46.209	54.739	0.000	55.005	11.988	865.148	51.477	-61.407	-10.130	-22.502	-26.342	0.000	67.783
0.6175	-31.496	872.330	38.214	-48.559	14.270	45.960	54.681	0.000	53.626	12.990	862.234	51.546	-60.148	-10.020	-22.311	-26.265	0.000	66.550
0.6200	-31.763	869.229	36.209	-46.745	14.248	45.660	54.543	0.000	51.836	13.822	862.238	51.007	-58.731	-9.957	-22.051	-26.007	0.000	64.935
0.6225	-31.938	866.657	34.644	-44.951	14.283	45.604	54.649	0.000	50.002	14.305	861.030	49.852	-57.518	-10.071	-21.512	-25.444	0.000	63.679
0.6250	-31.803	861.649	32.862	-43.269	14.326	45.461	54.791	0.000	48.435	15.012	858.965	48.302	-56.104	-10.026	-21.234	-25.220	0.000	62.270
0.6275	-31.544	857.670	30.545	-41.523	14.275	45.090	54.598	0.000	46.747	16.369	856.389	47.498	-54.689	-9.926	-21.043	-25.146	0.000	60.850
0.6300	-31.630	854.050	28.936	-39.732	14.226	44.877	54.583	0.000	44.933	16.989	854.837	45.727	-53.033	-9.956	-20.677	-24.798	0.000	59.120
0.6325	-31.762	850.789	26.802	-37.627	14.306	44.839	54.752	0.000	42.746	17.350	854.141	43.478	-51.620	-10.023	-20.277	-24.369	0.000	57.635
0.6350	-32.032	848.209	23.913	-35.701	14.285	44.748	54.826	0.000	40.760	18.186	852.936	42.191	-50.028	-10.007	-19.964	-24.083	0.000	55.920
0.6375	-31.464	843.891	21.554	-33.864	14.355	44.552	54.842	0.000	38.918	19.676	849.845	40.988	-48.304	-9.879	-19.686	-23.925	0.000	54.162
0.6400	-31.291	840.796	19.374	-31.695	14.398	44.304	54.737	0.000	36.600	20.425	849.160	39.788	-46.622	-9.789	-19.356	-23.597	0.000	52.290
0.6425	-31.341	838.567	16.794	-29.723	14.451	44.248	54.819	0.000	34.486	21.830	845.721	38.193	-45.032	-9.717	-18.974	-23.318	0.000	50.711
0.6450	-30.728	836.510	14.563	-27.773	14.532	44.246	54.916	0.000	32.361	22.884	843.317	36.945	-43.285	-9.617	-18.626	-23.031	0.000	48.854
0.6475	-29.759	833.931	12.642	-25.779	14.613	44.260	55.050	0.000	30.174	24.643	842.112	34.919	-41.581	-9.500	-18.192	-22.645	0.000	47.011
0.6500	-29.144	832.745	10.411	-23.761	14.723	44.416	55.280	0.000	27.915	25.226	842.614	32.102	-39.857	-9.624	-17.721	-22.105	0.000	45.091
0.6525	-28.476	829.997	9.372	-21.989	14.767	44.483	55.507	0.000	25.929	26.198	839.343	29.846	-38.069	-9.579	-17.408	-21.872	0.000	43.262
0.6550	-28.166	828.464	7.891	-20.260	14.848	44.568	55.695	0.000	23.971	26.912	837.960	27.420	-36.345	-9.554	-17.164	-21.657	0.000	41.410
0.6575	-27.595	826.925	5.924	-18.289	14.864	44.531	55.722	0.000	21.740	28.146	835.724	25.428	-34.289	-9.455	-16.851	-21.409	0.000	39.172
0.6600	-27.290	824.521	3.739	-16.340	14.899	44.441	55.757	0.000	19.561	29.163	833.140	23.043	-32.500	-9.402	-16.555	-21.177	0.000	37.278
0.6625	-27.607	822.988	1.026	-14.434	14.989	44.368	55.789	0.000	17.431	30.179	831.070	20.789	-30.623	-9.450	-16.224	-20.889	0.000	35.240
